<?xml version="1.0" encoding="UTF-8" standalone="no"?>
<!DOCTYPE svg PUBLIC "-//W3C//DTD SVG 1.1//EN"
 "http://www.w3.org/Graphics/SVG/1.1/DTD/svg11.dtd">
<!-- Generated by graphviz version 2.47.0 (20210316.0004)
 -->
<!-- Title: dependencies Pages: 1 -->
<svg width="960pt" height="298pt"
 viewBox="0.00 0.00 960.00 298.00" xmlns="http://www.w3.org/2000/svg" xmlns:xlink="http://www.w3.org/1999/xlink">
<g id="graph0" class="graph" transform="scale(1 1) rotate(0) translate(4 294)">
<title>dependencies</title>
<polygon fill="white" stroke="transparent" points="-4,4 -4,-294 956,-294 956,4 -4,4"/>
<text text-anchor="start" x="455.01" y="-42.4" font-family="Times-12" font-weight="bold" font-size="14.00">Legend</text>
<polygon fill="#ffffb3" stroke="transparent" points="242,-10 242,-30 262,-30 262,-10 242,-10"/>
<text text-anchor="start" x="265.63" y="-15.4" font-family="Times-12" font-size="14.00"> &#160;Declarations</text>
<polygon fill="#8dd3c7" stroke="transparent" points="355,-10 355,-30 375,-30 375,-10 355,-10"/>
<text text-anchor="start" x="378.73" y="-15.4" font-family="Times-12" font-size="14.00"> &#160;Module</text>
<polygon fill="#80b1d3" stroke="transparent" points="441,-10 441,-30 461,-30 461,-10 441,-10"/>
<text text-anchor="start" x="464.78" y="-15.4" font-family="Times-12" font-size="14.00"> &#160;Bootstrap</text>
<polygon fill="#fdb462" stroke="transparent" points="538,-10 538,-30 558,-30 558,-10 538,-10"/>
<text text-anchor="start" x="561.67" y="-15.4" font-family="Times-12" font-size="14.00"> &#160;Providers</text>
<polygon fill="#fb8072" stroke="transparent" points="634,-10 634,-30 654,-30 654,-10 634,-10"/>
<text text-anchor="start" x="657.73" y="-15.4" font-family="Times-12" font-size="14.00"> &#160;Exports</text>
<g id="clust1" class="cluster">
<title>cluster_AppModule</title>
<polygon fill="none" stroke="black" stroke-dasharray="1,5" points="182,-146 182,-274 646,-274 646,-146 182,-146"/>
</g>
<g id="clust3" class="cluster">
<title>cluster_AppModule_imports</title>
<polygon fill="none" stroke="black" points="190,-154 190,-206 638,-206 638,-154 190,-154"/>
</g>
<g id="clust7" class="cluster">
<title>cluster_AuthModule</title>
<polygon fill="none" stroke="black" stroke-dasharray="1,5" points="8,-70 8,-138 290,-138 290,-70 8,-70"/>
</g>
<g id="clust12" class="cluster">
<title>cluster_AuthModule_providers</title>
<polygon fill="none" stroke="black" points="16,-78 16,-130 282,-130 282,-78 16,-78"/>
</g>
<g id="clust13" class="cluster">
<title>cluster_PrismaModule</title>
<polygon fill="none" stroke="black" stroke-dasharray="1,5" points="654,-214 654,-282 944,-282 944,-214 654,-214"/>
</g>
<g id="clust16" class="cluster">
<title>cluster_PrismaModule_exports</title>
<polygon fill="none" stroke="black" points="820,-222 820,-274 936,-274 936,-222 820,-222"/>
</g>
<g id="clust18" class="cluster">
<title>cluster_PrismaModule_providers</title>
<polygon fill="none" stroke="black" points="662,-222 662,-274 812,-274 812,-222 662,-222"/>
</g>
<g id="clust19" class="cluster">
<title>cluster_UploadModule</title>
<polygon fill="none" stroke="black" stroke-dasharray="1,5" points="298,-70 298,-138 466,-138 466,-70 298,-70"/>
</g>
<g id="clust24" class="cluster">
<title>cluster_UploadModule_providers</title>
<polygon fill="none" stroke="black" points="306,-78 306,-130 458,-130 458,-78 306,-78"/>
</g>
<g id="clust25" class="cluster">
<title>cluster_UsersModule</title>
<polygon fill="none" stroke="black" stroke-dasharray="1,5" points="474,-70 474,-138 630,-138 630,-70 474,-70"/>
</g>
<g id="clust30" class="cluster">
<title>cluster_UsersModule_providers</title>
<polygon fill="none" stroke="black" points="482,-78 482,-130 622,-130 622,-78 482,-78"/>
</g>
<!-- AuthModule -->
<g id="node1" class="node">
<title>AuthModule</title>
<polygon fill="#8dd3c7" stroke="black" points="285.55,-198 282.55,-202 261.55,-202 258.55,-198 198.45,-198 198.45,-162 285.55,-162 285.55,-198"/>
<text text-anchor="middle" x="242" y="-175.8" font-family="Times,serif" font-size="14.00">AuthModule</text>
</g>
<!-- AppModule -->
<g id="node5" class="node">
<title>AppModule</title>
<polygon fill="#8dd3c7" stroke="black" points="452.66,-266 449.66,-270 428.66,-270 425.66,-266 369.34,-266 369.34,-230 452.66,-230 452.66,-266"/>
<text text-anchor="middle" x="411" y="-243.8" font-family="Times,serif" font-size="14.00">AppModule</text>
</g>
<!-- AuthModule&#45;&gt;AppModule -->
<g id="edge1" class="edge">
<title>AuthModule&#45;&gt;AppModule</title>
<path fill="none" stroke="black" d="M242,-198.22C242,-218.37 242,-248 242,-248 242,-248 359.22,-248 359.22,-248"/>
<polygon fill="black" stroke="black" points="359.22,-251.5 369.22,-248 359.22,-244.5 359.22,-251.5"/>
</g>
<!-- PrismaModule -->
<g id="node2" class="node">
<title>PrismaModule</title>
<polygon fill="#8dd3c7" stroke="black" points="630.43,-198 627.43,-202 606.43,-202 603.43,-198 531.57,-198 531.57,-162 630.43,-162 630.43,-198"/>
<text text-anchor="middle" x="581" y="-175.8" font-family="Times,serif" font-size="14.00">PrismaModule</text>
</g>
<!-- PrismaModule&#45;&gt;AppModule -->
<g id="edge2" class="edge">
<title>PrismaModule&#45;&gt;AppModule</title>
<path fill="none" stroke="black" d="M564.59,-198.27C564.59,-216.56 564.59,-242 564.59,-242 564.59,-242 462.97,-242 462.97,-242"/>
<polygon fill="black" stroke="black" points="462.97,-238.5 452.97,-242 462.97,-245.5 462.97,-238.5"/>
</g>
<!-- PrismaService  -->
<g id="node8" class="node">
<title>PrismaService </title>
<polygon fill="#fb8072" stroke="black" points="928.36,-266 827.64,-266 827.64,-230 928.36,-230 928.36,-266"/>
<text text-anchor="middle" x="878" y="-243.8" font-family="Times,serif" font-size="14.00">PrismaService </text>
</g>
<!-- PrismaModule&#45;&gt;PrismaService  -->
<g id="edge7" class="edge">
<title>PrismaModule&#45;&gt;PrismaService </title>
<path fill="none" stroke="black" stroke-dasharray="5,2" d="M630.38,-180C714.83,-180 878,-180 878,-180 878,-180 878,-219.78 878,-219.78"/>
<polygon fill="black" stroke="black" points="874.5,-219.78 878,-229.78 881.5,-219.78 874.5,-219.78"/>
</g>
<!-- UploadModule -->
<g id="node3" class="node">
<title>UploadModule</title>
<polygon fill="#8dd3c7" stroke="black" points="404.26,-198 401.26,-202 380.26,-202 377.26,-198 303.74,-198 303.74,-162 404.26,-162 404.26,-198"/>
<text text-anchor="middle" x="354" y="-175.8" font-family="Times,serif" font-size="14.00">UploadModule</text>
</g>
<!-- UploadModule&#45;&gt;AppModule -->
<g id="edge3" class="edge">
<title>UploadModule&#45;&gt;AppModule</title>
<path fill="none" stroke="black" d="M386.78,-198.22C386.78,-198.22 386.78,-219.73 386.78,-219.73"/>
<polygon fill="black" stroke="black" points="383.28,-219.73 386.78,-229.73 390.28,-219.73 383.28,-219.73"/>
</g>
<!-- UsersModule -->
<g id="node4" class="node">
<title>UsersModule</title>
<polygon fill="#8dd3c7" stroke="black" points="513.92,-198 510.92,-202 489.92,-202 486.92,-198 422.08,-198 422.08,-162 513.92,-162 513.92,-198"/>
<text text-anchor="middle" x="468" y="-175.8" font-family="Times,serif" font-size="14.00">UsersModule</text>
</g>
<!-- UsersModule&#45;&gt;AppModule -->
<g id="edge4" class="edge">
<title>UsersModule&#45;&gt;AppModule</title>
<path fill="none" stroke="black" d="M437.56,-198.22C437.56,-198.22 437.56,-219.73 437.56,-219.73"/>
<polygon fill="black" stroke="black" points="434.06,-219.73 437.56,-229.73 441.06,-219.73 434.06,-219.73"/>
</g>
<!-- AuthService -->
<g id="node6" class="node">
<title>AuthService</title>
<ellipse fill="#fdb462" stroke="black" cx="215" cy="-104" rx="59.11" ry="18"/>
<text text-anchor="middle" x="215" y="-99.8" font-family="Times,serif" font-size="14.00">AuthService</text>
</g>
<!-- AuthService&#45;&gt;AuthModule -->
<g id="edge5" class="edge">
<title>AuthService&#45;&gt;AuthModule</title>
<path fill="none" stroke="black" d="M236.27,-120.87C236.27,-120.87 236.27,-151.85 236.27,-151.85"/>
<polygon fill="black" stroke="black" points="232.77,-151.85 236.27,-161.85 239.77,-151.85 232.77,-151.85"/>
</g>
<!-- JwtStrategy -->
<g id="node7" class="node">
<title>JwtStrategy</title>
<ellipse fill="#fdb462" stroke="black" cx="81" cy="-104" rx="56.76" ry="18"/>
<text text-anchor="middle" x="81" y="-99.8" font-family="Times,serif" font-size="14.00">JwtStrategy</text>
</g>
<!-- JwtStrategy&#45;&gt;AuthModule -->
<g id="edge6" class="edge">
<title>JwtStrategy&#45;&gt;AuthModule</title>
<path fill="none" stroke="black" d="M81,-122.01C81,-144.49 81,-180 81,-180 81,-180 188.43,-180 188.43,-180"/>
<polygon fill="black" stroke="black" points="188.43,-183.5 198.43,-180 188.43,-176.5 188.43,-183.5"/>
</g>
<!-- PrismaService -->
<g id="node9" class="node">
<title>PrismaService</title>
<ellipse fill="#fdb462" stroke="black" cx="737" cy="-248" rx="66.63" ry="18"/>
<text text-anchor="middle" x="737" y="-243.8" font-family="Times,serif" font-size="14.00">PrismaService</text>
</g>
<!-- PrismaService&#45;&gt;PrismaModule -->
<g id="edge8" class="edge">
<title>PrismaService&#45;&gt;PrismaModule</title>
<path fill="none" stroke="black" d="M673.74,-254C636.8,-254 597.41,-254 597.41,-254 597.41,-254 597.41,-208.29 597.41,-208.29"/>
<polygon fill="black" stroke="black" points="600.91,-208.29 597.41,-198.29 593.91,-208.29 600.91,-208.29"/>
</g>
<!-- UploadService -->
<g id="node10" class="node">
<title>UploadService</title>
<ellipse fill="#fdb462" stroke="black" cx="382" cy="-104" rx="68.34" ry="18"/>
<text text-anchor="middle" x="382" y="-99.8" font-family="Times,serif" font-size="14.00">UploadService</text>
</g>
<!-- UploadService&#45;&gt;UploadModule -->
<g id="edge9" class="edge">
<title>UploadService&#45;&gt;UploadModule</title>
<path fill="none" stroke="black" d="M358.98,-121.25C358.98,-121.25 358.98,-151.76 358.98,-151.76"/>
<polygon fill="black" stroke="black" points="355.48,-151.76 358.98,-161.76 362.48,-151.76 355.48,-151.76"/>
</g>
<!-- UsersService -->
<g id="node11" class="node">
<title>UsersService</title>
<ellipse fill="#fdb462" stroke="black" cx="552" cy="-104" rx="61.95" ry="18"/>
<text text-anchor="middle" x="552" y="-99.8" font-family="Times,serif" font-size="14.00">UsersService</text>
</g>
<!-- UsersService&#45;&gt;UsersModule -->
<g id="edge10" class="edge">
<title>UsersService&#45;&gt;UsersModule</title>
<path fill="none" stroke="black" d="M501.87,-114.89C501.87,-114.89 501.87,-151.79 501.87,-151.79"/>
<polygon fill="black" stroke="black" points="498.37,-151.79 501.87,-161.79 505.37,-151.79 498.37,-151.79"/>
</g>
</g>
</svg>
